<svg width="653" height="418" viewBox="0 0 653 418" fill="none" xmlns="http://www.w3.org/2000/svg">
<mask id="mask0_1_626" style="mask-type:alpha" maskUnits="userSpaceOnUse" x="0" y="107" width="311" height="311">
<circle cx="155.5" cy="262.5" r="153.355" fill="#C4C4C4" stroke="#F8BB54" stroke-width="4.28966"/>
</mask>
<g mask="url(#mask0_1_626)">
<path d="M-90.3693 172.214C-90.3693 172.214 -17.9594 158.8 0.723241 111.854C18.5907 66.8512 92.192 54.7546 92.192 54.7546" stroke="#F8BB54" stroke-width="2" stroke-miterlimit="10"/>
<path d="M-90.3693 194.777C-90.3693 194.777 -1.5337 179.296 21.3491 122.635C43.1662 68.5436 133.381 54.7546 133.381 54.7546" stroke="#F8BB54" stroke-width="2" stroke-miterlimit="10"/>
<path d="M-90.3693 217.404C-90.3693 217.404 14.8291 199.792 41.9123 133.541C67.7418 70.1735 174.57 54.7546 174.57 54.7546" stroke="#F8BB54" stroke-width="2" stroke-miterlimit="10"/>
<path d="M-90.3693 239.969C-90.3693 239.969 31.2546 220.288 62.5383 144.322C92.3174 71.8658 215.759 54.7546 215.759 54.7546" stroke="#F8BB54" stroke-width="2" stroke-miterlimit="10"/>
<path d="M-90.3693 262.533C-90.3693 262.533 47.6801 240.784 83.1642 155.165C116.893 73.5581 256.886 54.7546 256.886 54.7546" stroke="#F8BB54" stroke-width="2" stroke-miterlimit="10"/>
<path d="M-90.3693 285.159C-90.3693 285.159 64.0429 261.342 103.727 166.008C141.531 75.1876 298.075 54.7546 298.075 54.7546" stroke="#F8BB54" stroke-width="2" stroke-miterlimit="10"/>
<path d="M-90.3693 307.724C-90.3693 307.724 80.4684 281.775 124.353 176.852C166.107 76.8799 339.264 54.7546 339.264 54.7546" stroke="#F8BB54" stroke-width="2" stroke-miterlimit="10"/>
<path d="M-90.3693 330.288C-90.3693 330.288 96.8941 302.271 144.916 187.632C190.682 78.5722 380.453 54.7546 380.453 54.7546" stroke="#F8BB54" stroke-width="2" stroke-miterlimit="10"/>
<path d="M-90.3693 352.915C-90.3693 352.915 113.257 322.829 165.542 198.538C215.258 80.2017 421.58 54.7546 421.58 54.7546" stroke="#F8BB54" stroke-width="2" stroke-miterlimit="10"/>
<path d="M-90.3693 375.477C-90.3693 375.477 129.682 343.325 186.106 209.382C239.833 81.894 462.769 54.7546 462.769 54.7546" stroke="#F8BB54" stroke-width="2" stroke-miterlimit="10"/>
<path d="M-90.3693 398.104C-90.3693 398.104 146.108 363.821 206.732 220.225C264.409 83.5863 503.958 54.7546 503.958 54.7546" stroke="#F8BB54" stroke-width="2" stroke-miterlimit="10"/>
<path d="M-90.3693 420.67C-90.3693 420.67 162.471 384.317 227.295 231.069C288.984 85.2162 545.146 54.7546 545.146 54.7546" stroke="#F8BB54" stroke-width="2" stroke-miterlimit="10"/>
<path d="M-90.3693 443.232C-90.3693 443.232 178.896 404.813 247.921 241.849C313.56 86.9086 586.335 54.7546 586.335 54.7546" stroke="#F8BB54" stroke-width="2" stroke-miterlimit="10"/>
<path d="M-90.3693 465.859C-90.3693 465.859 195.322 425.309 268.547 252.755C338.136 88.6009 627.463 54.7546 627.463 54.7546" stroke="#F8BB54" stroke-width="2" stroke-miterlimit="10"/>
<path d="M-90.3693 488.425C-90.3693 488.425 211.684 445.804 289.11 263.536C362.711 90.2304 668.652 54.7546 668.652 54.7546" stroke="#F8BB54" stroke-width="2" stroke-miterlimit="10"/>
<path d="M-90.3693 510.991C-90.3693 510.991 228.11 466.3 309.736 274.379C387.287 91.9227 709.841 54.7546 709.841 54.7546" stroke="#F8BB54" stroke-width="2" stroke-miterlimit="10"/>
<path d="M-90.3693 533.618C-90.3693 533.618 244.535 486.857 330.299 285.222C411.862 93.615 751.03 54.7546 751.03 54.7546" stroke="#F8BB54" stroke-width="2" stroke-miterlimit="10"/>
<path d="M-90.3693 556.18C-90.3693 556.18 260.898 507.292 350.925 296.066C436.438 95.2445 792.158 54.7546 792.158 54.7546" stroke="#F8BB54" stroke-width="2" stroke-miterlimit="10"/>
</g>
</svg>
